# xmcd CD database file
#
# Track frame offsets:
#	150
#	24467
#	58325
#	84222
#	104667
#	125120
#	147642
#	169502
#	191542
#	225237
#	250062
#	288925
#
# Disc length: 4163 seconds
#
# Revision: 0
# Processed by: cddbd v1.4PL0 Copyright (c) Steve Scherf et al.
# Submitted via: CDex 1.50Beta7
#
DISCID=a510410c
DTITLE=RICHIE COLE - COOL "C" and TOKYO MADNESS
DYEAR=2001
DGENRE=Jazz
TTITLE0=BACK TO TOP
TTITLE1=WILLOW WEEP FOR ME
TTITLE2=BLUE BOSSA
TTITLE3=SOMEBODY MY PRINCE WILL COME
TTITLE4=AUTUMN LEAVES
TTITLE5=COOL "C"
TTITLE6=ON GREEN DOLPHIN STREET
TTITLE7=ST. THOMAS
TTITLE8=LADY BIRD
TTITLE9=I CAN'T GET STARTED
TTITLE10=TOKYO ROSE SINGS THE HOLLYWOOD BLUES
TTITLE11=CHEROKEE
EXTD=YEAR: 2001
EXTT0=
EXTT1=
EXTT2=
EXTT3=
EXTT4=
EXTT5=
EXTT6=
EXTT7=
EXTT8=
EXTT9=
EXTT10=
EXTT11=
PLAYORDER=
